# xmcd CD database file
#
# Track frame offsets:
#	150
#	19915
#	39127
#	58890
#	86275
#	111477
#	141345
#	158952
#	164465
#
# Disc length: 2659 seconds
#
# Revision: 0
# Processed by: cddbd v1.5PL3 Copyright (c) Steve Scherf et al.
# Submitted via: CDex 1.51
#
DISCID=750a6109
DTITLE=Anirahtak and die Juergen Sturm Band - Das Kurt Weill Programm
DYEAR=1989
DGENRE=Jazz
TTITLE0=Die Moritat von Mackie Messer
TTITLE1=Die Seeraeuber Jenny
TTITLE2=Die Zuhaelter Ballade
TTITLE3=Der Kanonensong
TTITLE4=Und was bekam des Soldaten Weib
TTITLE5=Das Lied von den braunen Inseln
TTITLE6=Muschel von Margate (Petroleum Song)
TTITLE7=Klops Lied
TTITLE8=Es regnet
EXTD=YEAR: 1989
EXTT0=
EXTT1=
EXTT2=
EXTT3=
EXTT4=
EXTT5=
EXTT6=
EXTT7=
EXTT8=
PLAYORDER=
